<svg xmlns="http://www.w3.org/2000/svg" width="940" height="420" viewBox="0 0 940 420" font-family="-apple-system,Segoe UI,Helvetica,Arial,sans-serif">
<rect width="940" height="420" rx="10" fill="#fff" stroke="#ccc"/>
<text x="470.0" y="28" font-size="16" text-anchor="middle" font-weight="bold" fill="#222">Comparator hysteresis: two thresholds stop noise from making the output chatter</text>
<text x="160" y="62" font-size="14" text-anchor="middle" font-weight="bold" fill="#222">Transfer curve</text>
<line x1="60.0" y1="90.0" x2="60.0" y2="260.0" stroke="#222" stroke-width="1.5" stroke-linecap="round"/>
<line x1="60.0" y1="260.0" x2="260.0" y2="260.0" stroke="#222" stroke-width="1.5" stroke-linecap="round"/>
<text x="160.0" y="284" font-size="12.5" text-anchor="middle" font-weight="normal" fill="#222">input voltage →</text>
<text transform="rotate(-90 46 175.0)" x="46" y="175.0" font-size="12.5" text-anchor="middle" fill="#222">output</text>
<line x1="60.0" y1="230.0" x2="190.0" y2="230.0" stroke="#1a6fd4" stroke-width="3" stroke-linecap="round"/>
<line x1="190.0" y1="230.0" x2="190.0" y2="120.0" stroke="#1a6fd4" stroke-width="3" stroke-linecap="round"/>
<line x1="190.0" y1="120.0" x2="260.0" y2="120.0" stroke="#1a6fd4" stroke-width="3" stroke-linecap="round"/>
<line x1="260.0" y1="120.0" x2="130.0" y2="120.0" stroke="#d1342f" stroke-width="3" stroke-linecap="round"/>
<line x1="130.0" y1="120.0" x2="130.0" y2="230.0" stroke="#d1342f" stroke-width="3" stroke-linecap="round"/>
<line x1="130.0" y1="230.0" x2="60.0" y2="230.0" stroke="#d1342f" stroke-width="3" stroke-linecap="round"/>
<text x="130" y="304" font-size="13" text-anchor="middle" font-weight="bold" fill="#d1342f">VL</text>
<text x="190" y="304" font-size="13" text-anchor="middle" font-weight="bold" fill="#1a6fd4">VH</text>
<text x="258" y="112" font-size="12.5" text-anchor="end" font-weight="normal" fill="#222">HIGH</text>
<text x="64" y="222" font-size="12.5" text-anchor="start" font-weight="normal" fill="#222">LOW</text>
<line x1="190.0" y1="187.0" x2="190.0" y2="163.0" stroke="#1a6fd4" stroke-width="2.5" stroke-linecap="round"/>
<polygon points="190.0,163.0 193.5,171.3 186.5,171.3" fill="#1a6fd4"/>
<line x1="130.0" y1="163.0" x2="130.0" y2="187.0" stroke="#d1342f" stroke-width="2.5" stroke-linecap="round"/>
<polygon points="130.0,187.0 126.5,178.7 133.5,178.7" fill="#d1342f"/>
<line x1="156.0" y1="230.0" x2="178.0" y2="230.0" stroke="#1a6fd4" stroke-width="2.5" stroke-linecap="round"/>
<polygon points="178.0,230.0 169.7,233.5 169.7,226.5" fill="#1a6fd4"/>
<line x1="164.0" y1="120.0" x2="142.0" y2="120.0" stroke="#d1342f" stroke-width="2.5" stroke-linecap="round"/>
<polygon points="142.0,120.0 150.3,116.5 150.3,123.5" fill="#d1342f"/>
<text x="160" y="360" font-size="12.5" text-anchor="middle" font-weight="normal" fill="#222">rising input must pass VH to go HIGH;</text>
<text x="160" y="378" font-size="12.5" text-anchor="middle" font-weight="normal" fill="#222">falling input must pass VL to go LOW</text>
<text x="580.0" y="62" font-size="14" text-anchor="middle" font-weight="bold" fill="#222">Noisy input (slowly rising)</text>
<polyline points="340.0,191.1 341.2,188.0 342.4,186.8 343.6,187.3 344.8,188.7 346.0,190.2 347.2,190.8 348.4,190.1 349.6,188.1 350.8,185.6 352.0,183.3 353.2,182.3 354.4,183.2 355.6,186.0 356.8,190.3 358.0,195.1 359.2,199.4 360.4,202.1 361.6,202.9 362.8,201.7 364.0,199.3 365.2,196.6 366.4,194.4 367.6,193.6 368.8,194.0 370.0,195.3 371.2,196.6 372.4,197.0 373.6,195.7 374.8,192.7 376.0,188.1 377.2,183.1 378.4,178.5 379.6,175.4 380.8,174.4 382.0,175.5 383.2,178.0 384.4,181.2 385.6,183.8 386.8,185.3 388.0,185.4 389.2,184.3 390.4,182.9 391.6,182.0 392.8,182.5 394.0,184.6 395.2,188.1 396.4,192.2 397.6,196.0 398.8,198.3 400.0,198.5 401.2,196.5 402.4,192.9 403.6,188.6 404.8,184.6 406.0,181.7 407.2,180.5 408.4,180.6 409.6,181.5 410.8,182.2 412.0,181.9 413.2,180.1 414.4,176.9 415.6,173.0 416.8,169.4 418.0,167.1 419.2,166.8 420.4,168.6 421.6,172.2 422.8,176.7 424.0,180.9 425.2,183.9 426.4,185.2 427.6,184.9 428.8,183.4 430.0,181.8 431.2,180.9 432.4,181.2 433.6,182.9 434.8,185.4 436.0,187.9 437.2,189.3 438.4,188.9 439.6,186.4 440.8,182.1 442.0,176.9 443.2,171.9 444.4,168.1 445.6,166.1 446.8,166.0 448.0,167.3 449.2,169.1 450.4,170.5 451.6,170.8 452.8,169.7 454.0,167.7 455.2,165.5 456.4,164.0 457.6,164.1 458.8,166.1 460.0,169.9 461.2,174.6 462.4,179.2 463.6,182.6 464.8,184.1 466.0,183.6 467.2,181.4 468.4,178.3 469.6,175.5 470.8,173.6 472.0,173.1 473.2,173.8 474.4,175.0 475.6,175.8 476.8,175.4 478.0,173.1 479.2,169.3 480.4,164.5 481.6,159.7 482.8,156.0 484.0,154.3 485.2,154.7 486.4,157.0 487.6,160.3 488.8,163.6 490.0,166.1 491.2,167.0 492.4,166.6 493.6,165.3 494.8,164.1 496.0,163.8 497.2,165.0 498.4,167.7 499.6,171.4 500.8,175.2 502.0,178.0 503.2,179.0 504.4,177.7 505.6,174.5 506.8,170.1 508.0,165.6 509.2,161.9 510.4,159.7 511.6,159.2 512.8,159.8 514.0,160.8 515.2,161.2 516.4,160.4 517.6,158.1 518.8,154.8 520.0,151.3 521.2,148.5 522.4,147.5 523.6,148.6 524.8,151.7 526.0,156.1 527.2,160.7 528.4,164.4 529.6,166.6 530.8,166.9 532.0,165.8 533.2,163.9 534.4,162.3 535.6,161.7 536.8,162.4 538.0,164.3 539.2,166.6 540.4,168.3 541.6,168.6 542.8,166.9 544.0,163.2 545.2,158.2 546.4,153.0 547.6,148.5 548.8,145.7 550.0,144.9 551.2,145.9 552.4,147.8 553.6,149.9 554.8,151.1 556.0,151.0 557.2,149.7 558.4,147.7 559.6,146.0 560.8,145.5 562.0,146.7 563.2,149.7 564.4,154.0 565.6,158.7 566.8,162.7 568.0,164.9 569.2,165.1 570.4,163.3 571.6,160.2 572.8,156.8 574.0,154.1 575.2,152.6 576.4,152.5 577.6,153.4 578.8,154.4 580.0,154.5 581.2,153.2 582.4,150.2 583.6,145.9 584.8,141.2 586.0,137.1 587.2,134.7 588.4,134.3 589.6,136.1 590.8,139.4 592.0,143.2 593.2,146.4 594.4,148.3 595.6,148.6 596.8,147.8 598.0,146.4 599.2,145.5 600.4,145.8 601.6,147.6 602.8,150.7 604.0,154.3 605.2,157.4 606.4,159.0 607.6,158.5 608.8,155.8 610.0,151.6 611.2,146.8 612.4,142.4 613.6,139.3 614.8,138.0 616.0,138.2 617.2,139.3 618.4,140.2 619.6,140.3 620.8,139.0 622.0,136.4 623.2,133.2 624.4,130.3 625.6,128.7 626.8,129.0 628.0,131.4 629.2,135.5 630.4,140.2 631.6,144.6 632.8,147.6 634.0,148.7 635.2,148.0 636.4,146.2 637.6,144.0 638.8,142.6 640.0,142.3 641.2,143.4 642.4,145.2 643.6,147.1 644.8,147.9 646.0,146.9 647.2,144.0 648.4,139.5 649.6,134.3 650.8,129.4 652.0,125.8 653.2,124.2 654.4,124.6 655.6,126.5 656.8,129.0 658.0,131.0 659.2,132.0 660.4,131.5 661.6,130.0 662.8,128.3 664.0,127.2 665.2,127.6 666.4,129.8 667.6,133.6 668.8,138.1 670.0,142.3 671.2,145.3 672.4,146.2 673.6,145.0 674.8,142.1 676.0,138.4 677.2,134.9 678.4,132.5 679.6,131.5 680.8,131.8 682.0,132.8 683.2,133.4 684.4,132.9 685.6,130.7 686.8,127.2 688.0,122.7 689.2,118.5 690.4,115.5 691.6,114.4 692.8,115.6 694.0,118.5 695.2,122.5 696.4,126.3 697.6,129.2 698.8,130.4 700.0,130.1 701.2,128.9 702.4,127.6 703.6,127.1 704.8,127.9 706.0,130.2 707.2,133.3 708.4,136.5 709.6,138.6 710.8,138.8 712.0,136.9 713.2,133.0 714.4,128.2 715.6,123.3 716.8,119.4 718.0,117.2 719.2,116.8 720.4,117.6 721.6,119.0 722.8,119.8 724.0,119.5 725.2,117.8 726.4,115.1 727.6,112.3 728.8,110.2 730.0,109.8 731.2,111.5 732.4,115.0 733.6,119.7 734.8,124.4 736.0,128.1 737.2,130.0 738.4,130.0 739.6,128.4 740.8,126.0 742.0,123.8 743.2,122.6 744.4,122.7 745.6,123.9 746.8,125.6 748.0,126.8 749.2,126.6 750.4,124.5 751.6,120.6 752.8,115.6 754.0,110.5 755.2,106.3 756.4,104.0 757.6,103.7 758.8,105.3 760.0,107.9 761.2,110.6 762.4,112.5 763.6,113.0 764.8,112.2 766.0,110.7 767.2,109.3 768.4,109.0 769.6,110.3 770.8,113.3 772.0,117.4 773.2,121.8 774.4,125.2 775.6,126.9 776.8,126.3 778.0,123.8 779.2,120.0 780.4,116.0 781.6,112.7 782.8,110.8 784.0,110.4 785.2,111.1 786.4,111.9 787.6,112.1 788.8,110.9 790.0,108.2 791.2,104.3 792.4,100.1 793.6,96.7 794.8,94.9 796.0,95.4 797.2,97.9 798.4,101.7 799.6,106.0 800.8,109.6 802.0,111.8 803.2,112.2 804.4,111.3 805.6,109.8 806.8,108.7 808.0,108.6 809.2,109.9 810.4,112.4 811.6,115.4 812.8,117.8 814.0,118.7 815.2,117.5 816.4,114.3 817.6,109.6 818.8,104.4 820.0,99.9" fill="none" stroke="#999" stroke-width="2" stroke-linejoin="round" stroke-linecap="round"/>
<line x1="340.0" y1="150.0" x2="820.0" y2="150.0" stroke="#1a6fd4" stroke-width="1.3" stroke-dasharray="5 4" stroke-linecap="round"/>
<text x="826" y="154.0" font-size="12.5" text-anchor="start" font-weight="normal" fill="#1a6fd4">threshold</text>
<line x1="340.0" y1="134.4" x2="820.0" y2="134.4" stroke="#1a6fd4" stroke-width="1.3" stroke-dasharray="2 3" stroke-linecap="round"/>
<text x="826" y="138.4" font-size="12.5" text-anchor="start" font-weight="normal" fill="#1a6fd4">VH</text>
<line x1="340.0" y1="165.6" x2="820.0" y2="165.6" stroke="#d1342f" stroke-width="1.3" stroke-dasharray="2 3" stroke-linecap="round"/>
<text x="826" y="169.6" font-size="12.5" text-anchor="start" font-weight="normal" fill="#d1342f">VL</text>
<text x="344" y="242" font-size="13" text-anchor="start" font-weight="bold" fill="#d1342f">Output, no hysteresis</text>
<polyline points="340.0,300.0 341.2,300.0 342.4,300.0 343.6,300.0 344.8,300.0 346.0,300.0 347.2,300.0 348.4,300.0 349.6,300.0 350.8,300.0 352.0,300.0 353.2,300.0 354.4,300.0 355.6,300.0 356.8,300.0 358.0,300.0 359.2,300.0 360.4,300.0 361.6,300.0 362.8,300.0 364.0,300.0 365.2,300.0 366.4,300.0 367.6,300.0 368.8,300.0 370.0,300.0 371.2,300.0 372.4,300.0 373.6,300.0 374.8,300.0 376.0,300.0 377.2,300.0 378.4,300.0 379.6,300.0 380.8,300.0 382.0,300.0 383.2,300.0 384.4,300.0 385.6,300.0 386.8,300.0 388.0,300.0 389.2,300.0 390.4,300.0 391.6,300.0 392.8,300.0 394.0,300.0 395.2,300.0 396.4,300.0 397.6,300.0 398.8,300.0 400.0,300.0 401.2,300.0 402.4,300.0 403.6,300.0 404.8,300.0 406.0,300.0 407.2,300.0 408.4,300.0 409.6,300.0 410.8,300.0 412.0,300.0 413.2,300.0 414.4,300.0 415.6,300.0 416.8,300.0 418.0,300.0 419.2,300.0 420.4,300.0 421.6,300.0 422.8,300.0 424.0,300.0 425.2,300.0 426.4,300.0 427.6,300.0 428.8,300.0 430.0,300.0 431.2,300.0 432.4,300.0 433.6,300.0 434.8,300.0 436.0,300.0 437.2,300.0 438.4,300.0 439.6,300.0 440.8,300.0 442.0,300.0 443.2,300.0 444.4,300.0 445.6,300.0 446.8,300.0 448.0,300.0 449.2,300.0 450.4,300.0 451.6,300.0 452.8,300.0 454.0,300.0 455.2,300.0 456.4,300.0 457.6,300.0 458.8,300.0 460.0,300.0 461.2,300.0 462.4,300.0 463.6,300.0 464.8,300.0 466.0,300.0 467.2,300.0 468.4,300.0 469.6,300.0 470.8,300.0 472.0,300.0 473.2,300.0 474.4,300.0 475.6,300.0 476.8,300.0 478.0,300.0 479.2,300.0 480.4,300.0 481.6,300.0 482.8,300.0 484.0,300.0 485.2,300.0 486.4,300.0 487.6,300.0 488.8,300.0 490.0,300.0 491.2,300.0 492.4,300.0 493.6,300.0 494.8,300.0 496.0,300.0 497.2,300.0 498.4,300.0 499.6,300.0 500.8,300.0 502.0,300.0 503.2,300.0 504.4,300.0 505.6,300.0 506.8,300.0 508.0,300.0 509.2,300.0 510.4,300.0 511.6,300.0 512.8,300.0 514.0,300.0 515.2,300.0 516.4,300.0 517.6,300.0 518.8,300.0 520.0,300.0 521.2,300.0 521.2,250.0 522.4,250.0 523.6,250.0 524.8,250.0 524.8,300.0 526.0,300.0 527.2,300.0 528.4,300.0 529.6,300.0 530.8,300.0 532.0,300.0 533.2,300.0 534.4,300.0 535.6,300.0 536.8,300.0 538.0,300.0 539.2,300.0 540.4,300.0 541.6,300.0 542.8,300.0 544.0,300.0 545.2,300.0 546.4,300.0 547.6,300.0 547.6,250.0 548.8,250.0 550.0,250.0 551.2,250.0 552.4,250.0 553.6,250.0 554.8,250.0 554.8,300.0 556.0,300.0 557.2,300.0 557.2,250.0 558.4,250.0 559.6,250.0 560.8,250.0 562.0,250.0 563.2,250.0 564.4,250.0 564.4,300.0 565.6,300.0 566.8,300.0 568.0,300.0 569.2,300.0 570.4,300.0 571.6,300.0 572.8,300.0 574.0,300.0 575.2,300.0 576.4,300.0 577.6,300.0 578.8,300.0 580.0,300.0 581.2,300.0 582.4,300.0 583.6,300.0 583.6,250.0 584.8,250.0 586.0,250.0 587.2,250.0 588.4,250.0 589.6,250.0 590.8,250.0 592.0,250.0 593.2,250.0 594.4,250.0 595.6,250.0 596.8,250.0 598.0,250.0 599.2,250.0 600.4,250.0 601.6,250.0 602.8,250.0 602.8,300.0 604.0,300.0 605.2,300.0 606.4,300.0 607.6,300.0 608.8,300.0 610.0,300.0 611.2,300.0 611.2,250.0 612.4,250.0 613.6,250.0 614.8,250.0 616.0,250.0 617.2,250.0 618.4,250.0 619.6,250.0 620.8,250.0 622.0,250.0 623.2,250.0 624.4,250.0 625.6,250.0 626.8,250.0 628.0,250.0 629.2,250.0 630.4,250.0 631.6,250.0 632.8,250.0 634.0,250.0 635.2,250.0 636.4,250.0 637.6,250.0 638.8,250.0 640.0,250.0 641.2,250.0 642.4,250.0 643.6,250.0 644.8,250.0 646.0,250.0 647.2,250.0 648.4,250.0 649.6,250.0 650.8,250.0 652.0,250.0 653.2,250.0 654.4,250.0 655.6,250.0 656.8,250.0 658.0,250.0 659.2,250.0 660.4,250.0 661.6,250.0 662.8,250.0 664.0,250.0 665.2,250.0 666.4,250.0 667.6,250.0 668.8,250.0 670.0,250.0 671.2,250.0 672.4,250.0 673.6,250.0 674.8,250.0 676.0,250.0 677.2,250.0 678.4,250.0 679.6,250.0 680.8,250.0 682.0,250.0 683.2,250.0 684.4,250.0 685.6,250.0 686.8,250.0 688.0,250.0 689.2,250.0 690.4,250.0 691.6,250.0 692.8,250.0 694.0,250.0 695.2,250.0 696.4,250.0 697.6,250.0 698.8,250.0 700.0,250.0 701.2,250.0 702.4,250.0 703.6,250.0 704.8,250.0 706.0,250.0 707.2,250.0 708.4,250.0 709.6,250.0 710.8,250.0 712.0,250.0 713.2,250.0 714.4,250.0 715.6,250.0 716.8,250.0 718.0,250.0 719.2,250.0 720.4,250.0 721.6,250.0 722.8,250.0 724.0,250.0 725.2,250.0 726.4,250.0 727.6,250.0 728.8,250.0 730.0,250.0 731.2,250.0 732.4,250.0 733.6,250.0 734.8,250.0 736.0,250.0 737.2,250.0 738.4,250.0 739.6,250.0 740.8,250.0 742.0,250.0 743.2,250.0 744.4,250.0 745.6,250.0 746.8,250.0 748.0,250.0 749.2,250.0 750.4,250.0 751.6,250.0 752.8,250.0 754.0,250.0 755.2,250.0 756.4,250.0 757.6,250.0 758.8,250.0 760.0,250.0 761.2,250.0 762.4,250.0 763.6,250.0 764.8,250.0 766.0,250.0 767.2,250.0 768.4,250.0 769.6,250.0 770.8,250.0 772.0,250.0 773.2,250.0 774.4,250.0 775.6,250.0 776.8,250.0 778.0,250.0 779.2,250.0 780.4,250.0 781.6,250.0 782.8,250.0 784.0,250.0 785.2,250.0 786.4,250.0 787.6,250.0 788.8,250.0 790.0,250.0 791.2,250.0 792.4,250.0 793.6,250.0 794.8,250.0 796.0,250.0 797.2,250.0 798.4,250.0 799.6,250.0 800.8,250.0 802.0,250.0 803.2,250.0 804.4,250.0 805.6,250.0 806.8,250.0 808.0,250.0 809.2,250.0 810.4,250.0 811.6,250.0 812.8,250.0 814.0,250.0 815.2,250.0 816.4,250.0 817.6,250.0 818.8,250.0 820.0,250.0" fill="none" stroke="#d1342f" stroke-width="2.5" stroke-linejoin="round" stroke-linecap="round"/>
<text x="826" y="280" font-size="12.5" text-anchor="start" font-weight="normal" fill="#d1342f">chatter</text>
<text x="344" y="332" font-size="13" text-anchor="start" font-weight="bold" fill="#2e8b57">Output with hysteresis</text>
<polyline points="340.0,390.0 341.2,390.0 342.4,390.0 343.6,390.0 344.8,390.0 346.0,390.0 347.2,390.0 348.4,390.0 349.6,390.0 350.8,390.0 352.0,390.0 353.2,390.0 354.4,390.0 355.6,390.0 356.8,390.0 358.0,390.0 359.2,390.0 360.4,390.0 361.6,390.0 362.8,390.0 364.0,390.0 365.2,390.0 366.4,390.0 367.6,390.0 368.8,390.0 370.0,390.0 371.2,390.0 372.4,390.0 373.6,390.0 374.8,390.0 376.0,390.0 377.2,390.0 378.4,390.0 379.6,390.0 380.8,390.0 382.0,390.0 383.2,390.0 384.4,390.0 385.6,390.0 386.8,390.0 388.0,390.0 389.2,390.0 390.4,390.0 391.6,390.0 392.8,390.0 394.0,390.0 395.2,390.0 396.4,390.0 397.6,390.0 398.8,390.0 400.0,390.0 401.2,390.0 402.4,390.0 403.6,390.0 404.8,390.0 406.0,390.0 407.2,390.0 408.4,390.0 409.6,390.0 410.8,390.0 412.0,390.0 413.2,390.0 414.4,390.0 415.6,390.0 416.8,390.0 418.0,390.0 419.2,390.0 420.4,390.0 421.6,390.0 422.8,390.0 424.0,390.0 425.2,390.0 426.4,390.0 427.6,390.0 428.8,390.0 430.0,390.0 431.2,390.0 432.4,390.0 433.6,390.0 434.8,390.0 436.0,390.0 437.2,390.0 438.4,390.0 439.6,390.0 440.8,390.0 442.0,390.0 443.2,390.0 444.4,390.0 445.6,390.0 446.8,390.0 448.0,390.0 449.2,390.0 450.4,390.0 451.6,390.0 452.8,390.0 454.0,390.0 455.2,390.0 456.4,390.0 457.6,390.0 458.8,390.0 460.0,390.0 461.2,390.0 462.4,390.0 463.6,390.0 464.8,390.0 466.0,390.0 467.2,390.0 468.4,390.0 469.6,390.0 470.8,390.0 472.0,390.0 473.2,390.0 474.4,390.0 475.6,390.0 476.8,390.0 478.0,390.0 479.2,390.0 480.4,390.0 481.6,390.0 482.8,390.0 484.0,390.0 485.2,390.0 486.4,390.0 487.6,390.0 488.8,390.0 490.0,390.0 491.2,390.0 492.4,390.0 493.6,390.0 494.8,390.0 496.0,390.0 497.2,390.0 498.4,390.0 499.6,390.0 500.8,390.0 502.0,390.0 503.2,390.0 504.4,390.0 505.6,390.0 506.8,390.0 508.0,390.0 509.2,390.0 510.4,390.0 511.6,390.0 512.8,390.0 514.0,390.0 515.2,390.0 516.4,390.0 517.6,390.0 518.8,390.0 520.0,390.0 521.2,390.0 522.4,390.0 523.6,390.0 524.8,390.0 526.0,390.0 527.2,390.0 528.4,390.0 529.6,390.0 530.8,390.0 532.0,390.0 533.2,390.0 534.4,390.0 535.6,390.0 536.8,390.0 538.0,390.0 539.2,390.0 540.4,390.0 541.6,390.0 542.8,390.0 544.0,390.0 545.2,390.0 546.4,390.0 547.6,390.0 548.8,390.0 550.0,390.0 551.2,390.0 552.4,390.0 553.6,390.0 554.8,390.0 556.0,390.0 557.2,390.0 558.4,390.0 559.6,390.0 560.8,390.0 562.0,390.0 563.2,390.0 564.4,390.0 565.6,390.0 566.8,390.0 568.0,390.0 569.2,390.0 570.4,390.0 571.6,390.0 572.8,390.0 574.0,390.0 575.2,390.0 576.4,390.0 577.6,390.0 578.8,390.0 580.0,390.0 581.2,390.0 582.4,390.0 583.6,390.0 584.8,390.0 586.0,390.0 587.2,390.0 588.4,390.0 588.4,340.0 589.6,340.0 590.8,340.0 592.0,340.0 593.2,340.0 594.4,340.0 595.6,340.0 596.8,340.0 598.0,340.0 599.2,340.0 600.4,340.0 601.6,340.0 602.8,340.0 604.0,340.0 605.2,340.0 606.4,340.0 607.6,340.0 608.8,340.0 610.0,340.0 611.2,340.0 612.4,340.0 613.6,340.0 614.8,340.0 616.0,340.0 617.2,340.0 618.4,340.0 619.6,340.0 620.8,340.0 622.0,340.0 623.2,340.0 624.4,340.0 625.6,340.0 626.8,340.0 628.0,340.0 629.2,340.0 630.4,340.0 631.6,340.0 632.8,340.0 634.0,340.0 635.2,340.0 636.4,340.0 637.6,340.0 638.8,340.0 640.0,340.0 641.2,340.0 642.4,340.0 643.6,340.0 644.8,340.0 646.0,340.0 647.2,340.0 648.4,340.0 649.6,340.0 650.8,340.0 652.0,340.0 653.2,340.0 654.4,340.0 655.6,340.0 656.8,340.0 658.0,340.0 659.2,340.0 660.4,340.0 661.6,340.0 662.8,340.0 664.0,340.0 665.2,340.0 666.4,340.0 667.6,340.0 668.8,340.0 670.0,340.0 671.2,340.0 672.4,340.0 673.6,340.0 674.8,340.0 676.0,340.0 677.2,340.0 678.4,340.0 679.6,340.0 680.8,340.0 682.0,340.0 683.2,340.0 684.4,340.0 685.6,340.0 686.8,340.0 688.0,340.0 689.2,340.0 690.4,340.0 691.6,340.0 692.8,340.0 694.0,340.0 695.2,340.0 696.4,340.0 697.6,340.0 698.8,340.0 700.0,340.0 701.2,340.0 702.4,340.0 703.6,340.0 704.8,340.0 706.0,340.0 707.2,340.0 708.4,340.0 709.6,340.0 710.8,340.0 712.0,340.0 713.2,340.0 714.4,340.0 715.6,340.0 716.8,340.0 718.0,340.0 719.2,340.0 720.4,340.0 721.6,340.0 722.8,340.0 724.0,340.0 725.2,340.0 726.4,340.0 727.6,340.0 728.8,340.0 730.0,340.0 731.2,340.0 732.4,340.0 733.6,340.0 734.8,340.0 736.0,340.0 737.2,340.0 738.4,340.0 739.6,340.0 740.8,340.0 742.0,340.0 743.2,340.0 744.4,340.0 745.6,340.0 746.8,340.0 748.0,340.0 749.2,340.0 750.4,340.0 751.6,340.0 752.8,340.0 754.0,340.0 755.2,340.0 756.4,340.0 757.6,340.0 758.8,340.0 760.0,340.0 761.2,340.0 762.4,340.0 763.6,340.0 764.8,340.0 766.0,340.0 767.2,340.0 768.4,340.0 769.6,340.0 770.8,340.0 772.0,340.0 773.2,340.0 774.4,340.0 775.6,340.0 776.8,340.0 778.0,340.0 779.2,340.0 780.4,340.0 781.6,340.0 782.8,340.0 784.0,340.0 785.2,340.0 786.4,340.0 787.6,340.0 788.8,340.0 790.0,340.0 791.2,340.0 792.4,340.0 793.6,340.0 794.8,340.0 796.0,340.0 797.2,340.0 798.4,340.0 799.6,340.0 800.8,340.0 802.0,340.0 803.2,340.0 804.4,340.0 805.6,340.0 806.8,340.0 808.0,340.0 809.2,340.0 810.4,340.0 811.6,340.0 812.8,340.0 814.0,340.0 815.2,340.0 816.4,340.0 817.6,340.0 818.8,340.0 820.0,340.0" fill="none" stroke="#2e8b57" stroke-width="2.5" stroke-linejoin="round" stroke-linecap="round"/>
<text x="826" y="370" font-size="12.5" text-anchor="start" font-weight="normal" fill="#2e8b57">clean</text>
<text x="820" y="405" font-size="12.5" text-anchor="end" font-weight="normal" fill="#999">time →</text>
<line x1="310.0" y1="50.0" x2="310.0" y2="400.0" stroke="#e5e5e5" stroke-width="1" stroke-linecap="round"/>
</svg>
